<?xml version="1.0" standalone="no"?>
<!DOCTYPE svg PUBLIC "-//W3C//DTD SVG 20010904//EN"
 "http://www.w3.org/TR/2001/REC-SVG-20010904/DTD/svg10.dtd">
<svg version="1.0" xmlns="http://www.w3.org/2000/svg"
 width="2048.000000pt" height="2048.000000pt" viewBox="0 0 2048.000000 2048.000000"
 preserveAspectRatio="xMidYMid meet">

<g transform="translate(0.000000,2048.000000) scale(0.100000,-0.100000)"
fill="#000000" stroke="none">
<path d="M3687 12822 l-27 -28 0 -1725 0 -1725 33 -32 33 -32 375 0 375 0 32
33 32 33 2 556 3 556 175 -589 175 -589 416 0 415 0 32 33 32 33 0 1724 0
1724 -27 28 -27 28 -381 0 -381 0 -27 -28 -27 -28 -1 -585 -1 -584 -108 330
c-60 182 -150 457 -200 613 l-91 282 -403 0 -402 0 -27 -28z"/>
<path d="M6840 12843 c0 -5 -104 -792 -231 -1750 l-231 -1742 28 -35 29 -36
493 0 c270 0 492 1 493 3 0 1 13 139 27 307 l27 305 105 0 105 0 22 -275 c12
-151 22 -290 22 -307 l1 -33 489 0 490 0 29 35 c18 23 28 44 25 58 -11 63
-513 3454 -513 3464 0 10 -145 13 -705 13 -388 0 -705 -3 -705 -7z m770 -1833
c17 -173 33 -330 36 -347 l6 -33 -86 0 -86 0 0 43 c0 37 37 384 72 667 l13
105 7 -60 c4 -33 21 -202 38 -375z"/>
<path d="M9377 12822 l-27 -28 0 -1725 0 -1725 33 -32 33 -32 450 0 450 0 27
28 27 28 1 485 1 484 127 -510 127 -510 489 -2 490 -3 27 39 28 39 -280 938
-279 938 254 770 255 770 -26 38 -27 38 -446 0 -447 0 -145 -486 -144 -485 -3
457 -2 458 -27 28 -27 28 -456 0 -456 0 -27 -28z"/>
<path d="M12277 12822 l-27 -28 0 -1725 0 -1725 33 -32 33 -32 775 0 775 0 32
33 32 33 0 344 0 344 -27 28 -27 28 -303 0 -303 0 0 320 0 320 248 0 248 0 32
33 32 33 0 325 0 325 -33 32 -33 32 -247 0 -247 0 0 265 0 265 268 0 268 0 32
33 32 33 0 345 0 345 -28 27 -28 27 -755 0 -755 0 -27 -28z"/>
<path d="M14647 12822 l-27 -28 0 -1730 0 -1730 29 -28 29 -27 733 4 c797 5
835 7 989 62 199 72 324 205 374 397 38 148 41 234 41 1268 0 1081 -3 1171
-51 1320 -32 102 -86 191 -164 269 -81 81 -152 124 -279 168 -197 67 -407 83
-1117 83 l-530 0 -27 -28z m1101 -708 c13 -8 28 -27 35 -42 9 -20 13 -247 15
-887 3 -865 -2 -1058 -32 -1129 -14 -34 -54 -56 -102 -56 l-24 0 0 1071 0
1071 43 -7 c23 -4 52 -13 65 -21z"/>
<path d="M4363 8460 c-231 -75 -309 -391 -142 -574 30 -33 73 -66 107 -83 50
-24 69 -28 147 -28 78 0 98 4 145 27 31 15 68 40 83 56 l27 28 -30 29 -29 28
-37 -33 c-51 -44 -93 -60 -161 -60 -100 1 -184 56 -227 150 -32 69 -29 189 6
255 77 146 238 189 359 94 l36 -28 33 28 33 27 -42 35 c-74 64 -200 84 -308
49z"/>
<path d="M6447 8470 c-95 -24 -182 -98 -226 -190 -23 -48 -26 -68 -26 -155 0
-87 3 -107 26 -156 87 -186 333 -258 496 -145 68 47 74 62 39 92 l-29 25 -26
-25 c-40 -39 -110 -66 -169 -66 -101 0 -179 51 -224 147 -28 58 -30 71 -26
141 6 94 29 144 94 201 50 44 95 61 159 61 47 0 113 -28 143 -60 l21 -22 36
27 36 28 -27 28 c-56 59 -202 93 -297 69z"/>
<path d="M16294 8466 c-119 -38 -174 -153 -125 -262 23 -50 58 -73 182 -119
106 -39 139 -68 139 -119 0 -113 -170 -157 -263 -68 l-27 26 -33 -32 -32 -33
32 -29 c44 -40 131 -64 205 -57 119 11 196 76 206 176 9 98 -36 161 -145 200
-32 12 -78 29 -103 38 -63 23 -90 53 -90 100 0 47 22 81 66 99 61 26 149 11
182 -29 13 -15 17 -14 48 11 l33 27 -26 27 c-49 51 -162 71 -249 44z"/>
<path d="M3730 8125 l0 -335 45 0 45 0 0 335 0 335 -45 0 -45 0 0 -335z"/>
<path d="M5020 8125 l0 -335 226 0 225 0 -3 38 -3 37 -177 3 -178 2 0 115 0
115 160 0 160 0 0 40 0 40 -160 0 -160 0 0 100 0 100 170 0 170 0 0 40 0 40
-215 0 -215 0 0 -335z"/>
<path d="M7080 8126 l0 -336 45 0 45 0 0 150 0 150 48 0 47 0 90 -150 90 -150
49 0 c34 0 47 4 43 13 -3 6 -44 75 -91 151 l-86 140 46 17 c89 34 118 80 112
178 -4 79 -24 111 -88 143 -40 20 -63 23 -197 26 l-153 4 0 -336z m300 239
c37 -19 50 -43 50 -90 0 -79 -43 -105 -175 -105 l-85 0 0 105 0 105 90 0 c62
0 100 -5 120 -15z"/>
<path d="M7850 8125 l0 -335 220 0 220 0 0 40 0 40 -180 0 -180 0 0 115 0 115
160 0 160 0 0 40 0 40 -160 0 -160 0 0 100 0 100 173 2 172 3 3 38 3 37 -215
0 -216 0 0 -335z"/>
<path d="M8811 8442 c-5 -9 -69 -152 -141 -317 -73 -165 -136 -308 -141 -317
-9 -16 -4 -18 40 -18 l49 0 32 80 32 80 168 0 168 0 33 -80 33 -80 48 0 c27 0
47 3 45 8 -2 4 -66 154 -142 335 l-139 327 -38 0 c-25 0 -40 -6 -47 -18z m108
-250 c34 -84 61 -154 61 -157 0 -3 -59 -5 -131 -5 -102 0 -130 3 -126 13 21
54 131 307 133 305 1 -2 30 -72 63 -156z"/>
<path d="M9450 8125 l0 -335 45 0 45 0 2 271 3 270 115 -271 c153 -359 131
-360 288 8 l117 273 3 -276 2 -275 40 0 40 0 0 335 0 336 -61 -3 -60 -3 -112
-257 -112 -258 -16 33 c-9 17 -60 134 -114 260 l-98 227 -63 0 -64 0 0 -335z"/>
<path d="M11332 8448 c3 -7 47 -158 99 -335 l94 -323 45 0 46 0 78 268 c43
147 81 270 85 274 4 5 43 -116 86 -267 l80 -275 45 0 46 0 93 318 c52 174 96
325 99 335 4 14 -3 17 -39 17 l-44 0 -74 -270 c-41 -149 -78 -267 -82 -263 -5
6 -99 316 -151 501 -8 30 -11 32 -56 32 l-47 0 -80 -274 c-44 -151 -81 -273
-83 -272 -1 2 -29 101 -62 222 -33 120 -67 243 -75 272 l-16 52 -45 0 c-33 0
-45 -4 -42 -12z"/>
<path d="M12697 8448 c-3 -7 -69 -156 -146 -332 -78 -175 -141 -320 -141 -323
0 -2 21 -3 47 -1 l46 3 31 75 32 75 168 0 169 0 32 -75 32 -75 47 -3 c42 -3
47 -1 42 15 -3 10 -66 160 -140 333 l-133 315 -40 3 c-26 2 -42 -2 -46 -10z
m109 -261 l62 -152 -64 -3 c-35 -2 -94 -2 -132 0 l-69 3 66 156 c36 86 68 155
70 153 3 -2 33 -73 67 -157z"/>
<path d="M13340 8125 l0 -335 40 0 40 0 0 150 0 150 161 0 160 0 -3 38 -3 37
-157 3 -158 3 0 104 0 105 168 2 167 3 3 38 3 37 -210 0 -211 0 0 -335z"/>
<path d="M14050 8125 l0 -335 45 0 45 0 0 150 0 150 155 0 155 0 0 40 0 40
-155 0 -155 0 0 105 0 105 165 0 165 0 0 40 0 40 -210 0 -210 0 0 -335z"/>
<path d="M14770 8125 l0 -335 195 0 195 0 0 40 0 40 -155 0 -155 0 0 295 0
295 -40 0 -40 0 0 -335z"/>
<path d="M15430 8125 l0 -335 220 0 220 0 0 40 0 40 -175 0 -175 0 0 115 0
115 155 0 155 0 0 40 0 40 -155 0 -155 0 0 100 0 100 168 2 167 3 3 38 3 37
-215 0 -216 0 0 -335z"/>
<path d="M10522 7893 c-24 -10 -34 -53 -18 -79 21 -31 52 -39 81 -20 60 40 5
126 -63 99z"/>
</g>
</svg>
